<svg width="23" height="20" viewBox="0 0 23 20" fill="none" xmlns="http://www.w3.org/2000/svg">
<g id="Group 1204">
<g id="Group 1089">
<g id="Group">
<path id="Vector" d="M10.0449 20C11.1495 20 12.0449 19.1046 12.0449 18C12.0449 16.8954 11.1495 16 10.0449 16C8.94035 16 8.04492 16.8954 8.04492 18C8.04492 19.1046 8.94035 20 10.0449 20Z" fill="#735CFF"/>
<path id="Vector_2" d="M16.7559 20C17.8604 20 18.7559 19.1046 18.7559 18C18.7559 16.8954 17.8604 16 16.7559 16C15.6513 16 14.7559 16.8954 14.7559 18C14.7559 19.1046 15.6513 20 16.7559 20Z" fill="#735CFF"/>
<path id="Vector_3" d="M0.666665 1.33337H3.44679L6.66536 12.6006L6.41291 13.1055C5.7482 14.4335 6.71313 16 8.20197 16H19.4222C19.7906 16 20.0888 15.7018 20.0888 15.3333C20.0888 14.9648 19.7906 14.6667 19.4222 14.6667H8.20197C7.70691 14.6667 7.38336 14.1454 7.60562 13.7018L7.78989 13.3333H19.4222C19.7197 13.3333 19.9814 13.1361 20.0634 12.8496L22.7301 3.5163C22.7874 3.31515 22.747 3.09897 22.6214 2.93168C22.4951 2.76501 22.2978 2.6667 22.0889 2.6667H5.21434L4.59065 0.483732C4.50861 0.197288 4.24692 0 3.94937 0H0.666665C0.298177 0 0 0.298177 0 0.666665C0 1.03515 0.298177 1.33337 0.666665 1.33337Z" fill="#735CFF"/>
</g>
</g>
</g>
</svg>
