<svg width="588" height="354" viewBox="0 0 588 354" fill="none" xmlns="http://www.w3.org/2000/svg">
<path d="M14.4083 254.269V210.083L98.1452 90.6143H156.788V207.9H177.791V254.269H156.788V287H102.782V254.269H14.4083ZM106.873 150.894L69.2328 207.9H106.873V150.894ZM411.826 254.269V210.083L495.563 90.6143H554.206V207.9H575.209V254.269H554.206V287H500.2V254.269H411.826ZM504.291 150.894L466.651 207.9H504.291V150.894Z" fill="black"/>
<path d="M446.811 199.943C446.721 202.455 446.608 204.993 446.468 207.557C445.962 216.944 444.717 226.261 442.718 235.4C439.796 248.749 435.261 261.719 429.083 273.972C398.726 334.179 342.994 353.63 298.09 350.749C280.027 349.598 263.716 344.831 251.51 337.647L238.753 323.469L313.01 289.631H336.765C336.765 289.631 336.784 289.619 336.791 289.613C354.145 278.34 366.7 263.471 375.13 246.61C379.962 236.957 383.446 226.653 385.711 216.001C390.689 192.638 389.822 167.592 384.497 144.041C383.921 141.503 383.301 138.983 382.625 136.483C381.012 130.514 379.115 124.665 376.952 118.995C376.775 118.519 376.592 118.045 376.408 117.577C357.535 69.2259 319.6 34.0652 277.385 46.0783C276.873 46.2241 276.367 46.3754 275.854 46.5339L246.553 82.9481L175.497 92.2335V69.0293C234.731 -6.61606 352.999 -26.9963 411.963 54.1611C412.052 54.2743 412.134 54.396 412.216 54.5162C419.628 64.7764 426.086 76.6508 431.367 90.2273C431.626 90.8852 431.879 91.5501 432.127 92.2208C432.158 92.3028 432.19 92.3849 432.216 92.4669C432.341 92.7895 432.462 93.1192 432.583 93.4474C435.183 100.504 437.472 108.011 439.414 115.974C445.233 139.772 447.971 167.648 446.813 199.941L446.811 199.943Z" fill="white"/>
<path d="M306.786 351.343C303.677 351.343 300.762 351.239 298.068 351.066C280.432 349.943 263.84 345.274 251.348 337.921L251.273 337.86L238.228 323.361L313.008 289.317H336.667C353.152 278.59 365.99 264.18 374.845 246.47C379.533 237.105 383.082 226.832 385.399 215.935C390.169 193.55 389.749 168.713 384.187 144.11C383.593 141.493 382.964 138.954 382.318 136.566C380.713 130.628 378.809 124.756 376.654 119.108C376.478 118.634 376.294 118.16 376.112 117.693C366.496 93.0583 352.058 72.371 335.454 59.4411C317.268 45.2789 297.218 40.7643 277.469 46.3839C276.99 46.5197 276.516 46.6612 276.038 46.8097L246.719 83.2466L246.593 83.2636L175.179 92.5956V68.9217L175.247 68.8354C208.357 26.5512 260.399 0.869663 311.119 1.76665C352.394 2.51084 388.298 21.0518 412.217 53.9743C412.303 54.0847 412.389 54.2106 412.476 54.3351C420.049 64.8188 426.505 76.8573 431.661 90.1112C431.921 90.7705 432.174 91.4383 432.421 92.1103C432.454 92.1952 432.488 92.2844 432.516 92.3749C432.633 92.6734 432.754 93.0002 432.874 93.3285C435.509 100.482 437.81 108.072 439.719 115.899C445.75 140.567 448.242 168.846 447.128 199.954C447.04 202.451 446.924 205.014 446.786 207.574C446.277 217.006 445.013 226.392 443.028 235.468C440.064 249.015 435.466 262.017 429.366 274.115C415.275 302.06 395.028 322.984 369.187 336.3C345.932 348.285 323.561 351.343 306.789 351.343H306.786ZM251.71 337.4C264.114 344.69 280.588 349.317 298.109 350.435C300.806 350.608 303.564 350.697 306.36 350.697C348.255 350.7 400.11 330.731 428.8 273.831C434.876 261.779 439.454 248.828 442.409 235.334C444.387 226.29 445.646 216.94 446.152 207.54C446.291 204.985 446.405 202.424 446.493 199.932C447.606 168.885 445.119 140.662 439.102 116.05C437.2 108.246 434.905 100.678 432.283 93.5577C432.16 93.2224 432.043 92.8998 431.918 92.5829C431.887 92.4853 431.857 92.4089 431.829 92.3339C431.582 91.6604 431.33 90.9983 431.071 90.3418C425.935 77.1375 419.505 65.1456 411.958 54.7001C411.875 54.5784 411.797 54.4638 411.712 54.3549C387.906 21.588 352.179 3.14042 311.108 2.39907C260.649 1.48935 208.805 27.0591 175.81 69.1382V91.8727L246.384 82.651L275.667 46.2608L275.758 46.2311C276.273 46.0726 276.781 45.9198 277.295 45.7727C297.248 40.0965 317.49 44.6493 335.841 58.9403C352.533 71.9395 367.044 92.7215 376.7 117.461C376.883 117.93 377.069 118.406 377.245 118.883C379.407 124.548 381.318 130.442 382.927 136.399C383.576 138.796 384.208 141.344 384.803 143.97C390.385 168.663 390.805 193.593 386.017 216.067C383.69 227.016 380.121 237.34 375.41 246.751C366.496 264.582 353.566 279.087 336.979 289.866L336.861 289.978L336.765 289.948H313.078L239.277 323.579L251.712 337.4H251.71Z" fill="black"/>
<g opacity="0.6">
<path opacity="0.6" d="M182.136 74.9346V91.3661L175.496 92.2334V69.0292C229.874 -0.412243 334.013 -23.2811 396.335 36.2354C333.476 -15.7303 234.63 7.90398 182.136 74.9346Z" fill="white"/>
</g>
<g opacity="0.6">
<path opacity="0.6" d="M341.905 294.842L337.845 289.614C355.199 278.341 367.754 263.473 376.184 246.611C381.016 236.958 384.501 226.654 386.765 216.002C391.743 192.639 390.876 167.593 385.551 144.042C384.976 141.504 384.355 138.984 383.679 136.484L384.116 135.118L389.498 130.326C406.865 204.679 390.794 265.1 341.906 294.843L341.905 294.842Z" fill="white"/>
</g>
<path d="M347.865 304.626L345.329 308.544C344.925 309.171 344.475 309.765 344.001 310.322H343.996C340.948 313.866 336.482 315.956 331.745 315.893C320.285 315.747 311.608 312.797 303.904 305.929C302.045 304.277 299.432 303.758 297.111 304.67L250.967 322.729C248.955 323.514 248.425 326.114 249.968 327.621L255.299 332.843C256.551 334.071 256.196 336.179 254.603 336.926L253.3 337.528L251.996 338.135C249.378 339.356 246.367 339.439 243.685 338.369C226.862 331.628 213.08 320.426 203.012 303.792C202.872 303.577 202.746 303.355 202.613 303.139L154.025 132.274C153.747 110.436 157.947 89.9031 169.881 71.6239L183.099 67.0541L182.056 81.8204C181.815 85.2385 185.009 87.8644 188.311 86.9731L245.017 71.5673C247.06 71.0169 248.742 69.5738 249.601 67.637L259.897 44.4328L271.882 41.1858L278.979 50.4711C277.246 57.3457 276.259 64.523 276.259 71.7201C276.259 83.8534 279.067 96.0632 285.872 107.007C286.903 108.665 288.022 110.298 289.244 111.893C298.749 119.818 307.281 129.806 314.263 141.433L314.269 141.439C320.512 151.825 325.526 163.522 328.898 176.226C336.588 205.177 334.312 233.813 324.439 256.655V256.667C323.521 273.808 333.091 289.037 346.467 297.885C348.706 299.366 349.32 302.378 347.865 304.626Z" fill="white"/>
<path d="M247.571 339.43C246.212 339.43 244.852 339.175 243.57 338.664C226.208 331.708 212.473 320.03 202.743 303.955C202.658 303.825 202.573 303.682 202.488 303.54L202.311 303.225L153.708 132.319V132.277C153.401 108.211 158.605 88.3144 169.614 71.4499L169.674 71.3594L183.447 66.5986L182.37 81.8431C182.263 83.3683 182.876 84.7986 184.054 85.7678C185.231 86.7383 186.752 87.0666 188.227 86.6676L244.933 71.2618C246.891 70.7341 248.487 69.3659 249.312 67.5083L259.67 44.1668L272.005 40.8251L279.323 50.4005L279.285 50.549C277.487 57.6811 276.575 64.8046 276.575 71.7202C276.575 84.817 279.794 96.6321 286.14 106.84C287.193 108.532 288.321 110.169 289.493 111.701C299.146 119.739 307.587 129.705 314.532 141.271C320.968 151.974 325.901 163.705 329.202 176.146C336.654 204.195 335.072 232.813 324.751 256.73C323.938 272.497 332.319 288.149 346.64 297.622C349.009 299.188 349.677 302.408 348.129 304.798L345.592 308.717C345.197 309.33 344.741 309.938 344.24 310.529L344.136 310.641C340.981 314.246 336.456 316.264 331.737 316.211C319.964 316.063 311.313 312.966 303.691 306.169C301.89 304.57 299.41 304.109 297.225 304.968L251.081 323.026C250.235 323.356 249.623 324.085 249.442 324.973C249.263 325.86 249.541 326.767 250.187 327.397L255.52 332.619C256.183 333.268 256.485 334.205 256.33 335.122C256.171 336.051 255.59 336.814 254.736 337.214L252.131 338.422C250.695 339.093 249.134 339.43 247.571 339.43ZM202.908 303.013L203.031 303.216C203.112 303.351 203.194 303.486 203.28 303.619C212.942 319.581 226.575 331.173 243.806 338.076C246.399 339.108 249.336 339.026 251.865 337.848L254.472 336.638C255.134 336.328 255.585 335.736 255.708 335.014C255.831 334.291 255.602 333.582 255.079 333.069L249.748 327.847C248.947 327.066 248.601 325.942 248.824 324.844C249.048 323.744 249.807 322.841 250.853 322.434L296.997 304.375C299.406 303.43 302.134 303.934 304.115 305.692C311.616 312.38 320.139 315.427 331.75 315.575C331.819 315.575 331.888 315.575 331.956 315.575C336.474 315.575 340.765 313.592 343.756 310.113L343.855 310.003C344.302 309.468 344.709 308.919 345.065 308.369L347.601 304.45C348.961 302.35 348.375 299.522 346.295 298.146C331.765 288.533 323.27 272.632 324.126 256.647L324.151 256.525C334.437 232.726 336.015 204.236 328.594 176.303C325.309 163.92 320.398 152.244 314.001 141.597C307.085 130.085 298.691 120.173 289.044 112.131C287.81 110.531 286.67 108.879 285.607 107.17C279.196 96.8598 275.946 84.9316 275.946 71.7145C275.946 64.7947 276.852 57.6697 278.638 50.5377L271.763 41.5424L260.128 44.6946L249.893 67.7616C248.991 69.7946 247.244 71.2915 245.101 71.8687L188.395 87.2745C186.72 87.7287 184.992 87.3552 183.655 86.2531C182.318 85.1509 181.621 83.5267 181.742 81.795L182.752 67.5055L170.088 71.8843C159.196 88.6101 154.045 108.351 154.342 132.223L202.911 303.008L202.908 303.013Z" fill="black"/>
<g opacity="0.6">
<path opacity="0.6" d="M208.289 306.95C211.894 313.007 215.986 318.362 220.533 323.046C214.19 317.432 208.611 310.698 203.874 302.728L155.283 131.862C155.004 110.025 159.204 89.4915 171.139 71.2123L184.357 66.6425L183.94 72.5351L175.554 75.434C163.619 93.7133 159.419 114.246 159.698 136.084L208.289 306.95Z" fill="white"/>
</g>
<g opacity="0.6">
<path opacity="0.6" d="M254.16 335.983C254.16 335.983 253.825 336.59 253.301 337.528L251.997 338.135C249.379 339.356 246.368 339.439 243.686 338.37C226.863 331.628 213.081 320.426 203.013 303.792L212.051 305.602C212.051 305.602 228.602 328.811 254.16 335.983Z" fill="white"/>
</g>
<g opacity="0.6">
<path opacity="0.6" d="M271.881 42.5299L275.309 47.0177L264.31 49.9987L254.014 73.2029C253.155 75.1398 251.473 76.5829 249.43 77.1332L192.724 92.539C189.784 93.337 186.924 91.3364 186.507 88.4686C187.089 88.5252 187.696 88.4814 188.309 88.3172L245.015 72.9114C247.058 72.3611 248.74 70.918 249.599 68.9811L259.895 45.7769L271.881 42.5299Z" fill="white"/>
</g>
<g opacity="0.3">
<path opacity="0.3" d="M347.864 304.627L345.328 308.544C344.924 309.171 344.474 309.765 344.001 310.323H343.995C343.545 310.259 325.117 307.538 313.656 293.574C313.656 293.574 305.649 287.301 294.474 295.606C294.474 295.606 269.789 309.671 251.328 310.101L251.676 308.328C251.707 308.322 251.745 308.31 251.778 308.302C296.745 296.34 320.804 239.987 305.517 182.446C301.141 165.976 294.02 151.19 285.019 138.759L285.196 137.867C285.196 137.867 303.277 157.228 314.264 141.43L314.269 141.436C320.512 151.822 325.527 163.52 328.898 176.223C336.589 205.174 334.313 233.81 324.439 256.652V256.665C323.522 273.805 333.091 289.034 346.467 297.882C348.707 299.364 349.32 302.376 347.866 304.624L347.864 304.627Z" fill="black"/>
</g>
<path d="M251.783 308.296C296.751 296.33 320.811 239.983 305.523 182.44C290.235 124.898 241.388 87.9514 196.421 99.9174C151.453 111.883 127.393 168.231 142.681 225.773C157.969 283.315 206.816 320.262 251.783 308.296Z" fill="white"/>
<path d="M234.6 310.859C194.88 310.859 155.735 276.175 142.368 225.856C134.958 197.958 136.482 169.466 146.66 145.631C156.85 121.769 174.493 105.427 196.337 99.6146C241.402 87.6269 290.517 124.747 305.823 182.367C313.233 210.265 311.709 238.756 301.531 262.592C291.341 286.454 273.698 302.796 251.854 308.608C246.144 310.128 240.363 310.858 234.6 310.858V310.859ZM213.598 97.9975C207.883 97.9975 202.161 98.7204 196.5 100.227C174.848 105.987 157.353 122.201 147.241 145.88C137.118 169.587 135.604 197.931 142.979 225.693C158.196 282.976 206.964 319.901 251.691 307.997C273.343 302.236 290.838 286.024 300.95 262.344C311.073 238.638 312.587 210.293 305.212 182.531C291.922 132.499 253.03 97.9975 213.598 97.9975Z" fill="black"/>
<g opacity="0.3">
<path opacity="0.3" d="M251.775 308.304C238.55 311.822 224.991 311.108 212.05 306.879C221.878 308.665 231.922 308.391 241.776 305.771C286.744 293.809 310.807 237.456 295.521 179.915C284.732 139.291 257.213 108.928 226.142 98.801C261.18 105.131 293.587 137.513 305.515 182.446C320.801 239.987 296.743 296.339 251.775 308.302V308.304Z" fill="black"/>
</g>
<g opacity="0.6">
<path opacity="0.6" d="M226.692 310.102C189.902 305.911 155.13 272.687 142.671 225.774C127.385 168.232 151.45 111.886 196.416 99.9243C206.738 97.1767 217.263 97.0069 227.546 99.0754C219.204 98.1133 210.754 98.6509 202.437 100.867C157.471 112.836 133.406 169.18 148.692 226.723C160.475 271.067 192.185 303.183 226.692 310.102Z" fill="white"/>
</g>
<path d="M284.258 227.983C283.594 235.769 282.046 243.18 279.705 250.03C277.251 257.235 273.914 263.807 269.794 269.51C263.427 278.329 255.199 285.068 245.461 288.836C243.783 289.487 242.058 290.048 240.292 290.517C205.602 299.715 167.481 269.653 155.152 223.364C151.962 211.397 150.812 199.514 151.459 188.315C152.211 175.242 155.413 163.097 160.682 152.834C163.996 146.368 168.134 140.653 172.994 135.916C177.516 131.509 182.662 127.953 188.365 125.445C190.701 124.409 193.125 123.558 195.638 122.889C230.328 113.69 268.443 143.753 280.773 190.036C284.241 203.044 285.302 215.952 284.259 227.983H284.258Z" fill="#735CFF"/>
<path d="M230.817 296.82C197.793 296.82 164.791 266.567 153.211 222.968C149.876 210.419 148.548 197.768 149.262 185.367C150.057 171.513 153.471 158.342 159.138 147.276C162.717 140.27 167.157 134.153 172.334 129.092C177.275 124.263 182.824 120.473 188.826 117.826C191.32 116.718 193.947 115.791 196.633 115.076C233.75 105.203 274.673 137.536 287.852 187.147C291.481 200.8 292.736 214.498 291.58 227.859C290.876 236.142 289.236 244.103 286.707 251.525C284.069 259.294 280.496 266.334 276.09 272.451C269.126 282.126 260.1 289.314 249.985 293.239C248.182 293.941 246.315 294.549 244.436 295.047C239.934 296.244 235.373 296.821 230.815 296.821L230.817 296.82ZM210.26 113.931C205.754 113.931 201.247 114.501 196.795 115.685C194.142 116.393 191.546 117.308 189.082 118.403C183.147 121.021 177.661 124.77 172.775 129.545C167.648 134.556 163.249 140.62 159.7 147.565C154.075 158.552 150.684 171.637 149.893 185.404C149.184 197.738 150.506 210.323 153.823 222.807C166.913 272.086 207.488 304.219 244.276 294.436C246.133 293.944 247.976 293.342 249.757 292.649C259.756 288.768 268.685 281.656 275.578 272.081C279.948 266.014 283.492 259.029 286.11 251.321C288.622 243.949 290.251 236.037 290.952 227.806C292.101 214.516 290.853 200.892 287.243 187.31C275.738 144 242.997 113.934 210.262 113.934L210.26 113.931Z" fill="black"/>
<g opacity="0.3">
<path opacity="0.3" d="M254.569 131.964C239.649 122.362 222.852 118.69 206.75 122.976C169.738 132.824 150.399 180.96 163.559 230.482C169.662 253.472 181.698 272.72 196.542 285.759C177.163 273.309 160.948 250.864 153.516 222.888C140.362 173.365 159.701 125.23 196.713 115.381C216.547 110.108 237.43 116.901 254.569 131.964Z" fill="black"/>
</g>
<path d="M223.638 216.71C228.449 215.43 230.963 209.174 229.252 202.736C227.542 196.299 222.255 192.118 217.444 193.398C212.633 194.678 210.12 200.935 211.83 207.372C213.541 213.81 218.827 217.991 223.638 216.71Z" fill="black"/>
<path d="M251.843 226.647C251.378 226.647 250.909 226.52 250.488 226.251L217.646 205.339C217.047 204.957 216.636 204.34 216.513 203.639L205.89 143.002C205.648 141.624 206.569 140.313 207.946 140.071C209.323 139.835 210.633 140.751 210.875 142.128L221.303 201.666L253.205 221.979C254.384 222.729 254.731 224.296 253.981 225.474C253.499 226.232 252.68 226.647 251.845 226.647H251.843Z" fill="black"/>
<g opacity="0.3">
<path opacity="0.3" d="M258.084 223.848C257.618 223.848 257.149 223.721 256.728 223.452L223.887 202.539C223.287 202.157 222.876 201.54 222.753 200.839L212.13 140.202C211.889 138.824 212.809 137.513 214.186 137.271C215.557 137.029 216.873 137.95 217.114 139.328L227.544 198.866L259.444 219.18C260.623 219.929 260.97 221.496 260.22 222.674C259.738 223.432 258.919 223.847 258.082 223.847L258.084 223.848Z" fill="black"/>
</g>
<g opacity="0.25">
<path opacity="0.25" d="M275.835 272.264C269.042 281.701 260.263 288.911 249.872 292.943L149.577 185.384C150.38 171.396 153.796 158.401 159.418 147.419L275.833 272.263L275.835 272.264Z" fill="white"/>
</g>
<g opacity="0.25">
<path opacity="0.25" d="M291.266 227.831C290.558 236.162 288.907 244.092 286.409 251.422L172.555 129.318C177.38 124.603 182.871 120.798 188.955 118.115L291.266 227.831Z" fill="white"/>
</g>
<path d="M230.676 298.74C216.409 298.74 201.877 293.304 188.62 282.817C171.09 268.952 157.865 247.872 151.381 223.459C144.896 199.047 145.915 174.176 154.25 153.429C162.676 132.461 177.554 118.188 196.145 113.242C214.736 108.294 234.733 113.289 252.45 127.302C269.98 141.167 283.205 162.248 289.69 186.66C296.174 211.073 295.155 235.943 286.82 256.69C278.394 277.659 263.517 291.932 244.925 296.878C240.246 298.123 235.475 298.738 230.676 298.738V298.74ZM210.369 115.817C205.954 115.817 201.575 116.381 197.282 117.523C180.071 122.101 166.248 135.44 158.357 155.082C150.376 174.947 149.419 198.825 155.658 222.32C161.9 245.815 174.581 266.065 191.365 279.341C207.962 292.468 226.579 297.175 243.789 292.596C260.999 288.018 274.822 274.679 282.713 255.038C290.695 235.172 291.652 211.295 285.412 187.799C279.17 164.305 266.49 144.055 249.705 130.778C237.249 120.926 223.654 115.817 210.371 115.817H210.369Z" fill="black"/>
<path d="M234.623 313.072C193.91 313.072 153.857 277.736 140.228 226.426C132.69 198.051 134.252 169.049 144.625 144.761C155.089 120.258 173.252 103.466 195.769 97.474C242.012 85.1694 292.343 122.998 307.963 181.798C315.501 210.173 313.939 239.175 303.566 263.463C293.102 287.966 274.939 304.758 252.422 310.75C246.531 312.318 240.567 313.072 234.624 313.072H234.623ZM213.622 100.209C208.088 100.209 202.549 100.909 197.068 102.368C176.088 107.949 159.115 123.711 149.277 146.75C139.347 170.004 137.87 197.837 145.118 225.125C160.021 281.227 207.575 317.441 251.122 305.856C272.102 300.275 289.075 284.512 298.913 261.474C308.842 238.22 310.32 210.387 303.072 183.101C290.045 134.059 252.062 100.21 213.622 100.21V100.209Z" fill="black"/>
<path d="M315.995 274.637C315.504 274.637 315.009 274.496 314.574 274.199C313.419 273.412 313.119 271.837 313.905 270.681C330.774 245.873 335.463 210.807 326.45 176.88C316.994 141.278 294.296 112.607 265.734 100.183C264.453 99.6258 263.865 98.1346 264.422 96.8528C264.979 95.571 266.468 94.9824 267.75 95.5399C297.717 108.574 321.488 138.496 331.339 175.58C340.723 210.907 335.769 247.525 318.087 273.531C317.598 274.251 316.802 274.639 315.993 274.639L315.995 274.637Z" fill="black"/>
<path d="M349.317 163.999C351.578 172.507 349.891 180.339 345.55 181.495C341.208 182.649 335.85 176.692 333.591 168.184C331.333 159.684 333.027 151.85 337.368 150.695C341.71 149.54 347.061 155.499 349.318 163.999H349.317Z" fill="white"/>
<path d="M344.436 181.955C342.531 181.955 340.484 180.823 338.553 178.674C336.26 176.123 334.389 172.426 333.285 168.265C332.18 164.107 331.97 159.97 332.695 156.618C333.434 153.192 335.066 150.979 337.287 150.389C339.505 149.8 342.018 150.91 344.359 153.516C346.649 156.065 348.518 159.761 349.622 163.92C350.728 168.082 350.94 172.221 350.218 175.572C349.48 178.998 347.851 181.21 345.63 181.802C345.24 181.905 344.841 181.956 344.436 181.956V181.955ZM338.478 150.866C338.128 150.866 337.783 150.91 337.448 150.999C335.469 151.525 334 153.568 333.313 156.75C332.609 160.007 332.817 164.038 333.895 168.101C334.975 172.168 336.796 175.772 339.024 178.251C341.2 180.671 343.49 181.717 345.468 181.188C347.447 180.661 348.914 178.62 349.6 175.438C350.301 172.181 350.092 168.149 349.012 164.081C347.932 160.017 346.112 156.415 343.889 153.937C342.083 151.927 340.199 150.867 338.48 150.867L338.478 150.866Z" fill="black"/>
<g opacity="0.3">
<path opacity="0.3" d="M349.316 163.999C351.577 172.507 349.89 180.339 345.549 181.495C341.207 182.649 335.849 176.692 333.59 168.184C331.332 159.684 333.026 151.85 337.367 150.695C341.709 149.54 347.06 155.499 349.317 163.999H349.316Z" fill="black"/>
</g>
<path d="M345.549 181.495L326.458 186.574C322.116 187.729 316.758 181.771 314.499 173.264C312.242 164.763 313.935 156.93 318.277 155.774L337.368 150.695C333.027 151.849 331.333 159.684 333.591 168.184C335.852 176.692 341.208 182.651 345.549 181.495Z" fill="white"/>
<path d="M325.344 187.035C323.44 187.035 321.393 185.903 319.461 183.754C317.168 181.203 315.297 177.507 314.193 173.346C313.089 169.187 312.878 165.051 313.603 161.699C314.344 158.272 315.974 156.06 318.195 155.47L337.287 150.39L337.449 151.003C335.47 151.529 334.001 153.572 333.314 156.754C332.61 160.011 332.818 164.042 333.897 168.105C334.977 172.173 336.797 175.776 339.025 178.255C341.198 180.673 343.484 181.718 345.462 181.193H345.469L345.632 181.803L326.54 186.884C326.15 186.987 325.751 187.038 325.347 187.038L325.344 187.035ZM335.162 151.607L318.356 156.079C316.377 156.606 314.908 158.649 314.221 161.83C313.517 165.087 313.725 169.118 314.803 173.181C315.883 177.249 317.704 180.853 319.932 183.331C322.108 185.752 324.397 186.795 326.376 186.268L343.18 181.796C341.649 181.416 340.066 180.357 338.553 178.674C336.26 176.123 334.389 172.426 333.284 168.265C332.18 164.107 331.97 159.97 332.695 156.618C333.173 154.406 334.022 152.699 335.162 151.609V151.607Z" fill="black"/>
<g opacity="0.3">
<path opacity="0.3" d="M345.549 181.492L326.456 186.574C322.408 187.651 317.475 182.536 314.995 174.934C316.703 176.288 318.493 176.871 320.131 176.434L335.069 172.458C337.726 178.592 341.975 182.44 345.549 181.491V181.492Z" fill="black"/>
</g>
<g opacity="0.6">
<path opacity="0.6" d="M337.363 150.693C334.758 151.389 333.107 154.49 332.695 158.699L317.112 162.839C315.545 163.257 314.317 164.554 313.5 166.434C313.386 160.908 315.144 156.604 318.276 155.775L337.363 150.693Z" fill="white"/>
</g>
<path d="M344.42 184.174C341.887 184.174 339.274 182.791 336.906 180.156C334.384 177.349 332.337 173.329 331.144 168.835C329.951 164.345 329.733 159.84 330.531 156.15C331.455 151.87 333.652 149.063 336.717 148.248C339.78 147.433 343.08 148.778 346.005 152.034C348.524 154.84 350.568 158.859 351.761 163.35C352.955 167.845 353.175 172.351 352.381 176.038C351.459 180.319 349.263 183.126 346.199 183.941C345.613 184.097 345.02 184.174 344.422 184.174H344.42ZM338.469 153.084C338.31 153.084 338.159 153.103 338.015 153.141C336.912 153.435 335.962 154.959 335.474 157.22C334.852 160.097 335.056 163.856 336.033 167.534C337.01 171.215 338.699 174.581 340.668 176.771C342.213 178.49 343.795 179.344 344.897 179.049C345.999 178.756 346.946 177.232 347.433 174.973C348.052 172.095 347.847 168.333 346.869 164.653C345.892 160.975 344.204 157.61 342.239 155.421C340.896 153.926 339.526 153.087 338.467 153.087L338.469 153.084Z" fill="black"/>
<path d="M325.33 189.254C322.795 189.254 320.183 187.87 317.815 185.236C315.293 182.429 313.246 178.408 312.053 173.914C310.86 169.424 310.642 164.919 311.438 161.229C312.362 156.949 314.559 154.142 317.624 153.327L336.709 148.25H336.716C338.063 147.888 339.451 148.693 339.811 150.044C340.17 151.396 339.365 152.783 338.015 153.141H338.012C336.911 153.436 335.962 154.962 335.475 157.22C334.853 160.097 335.056 163.856 336.033 167.534C337.01 171.215 338.699 174.581 340.669 176.771C342.214 178.49 343.796 179.344 344.897 179.049C346.244 178.689 347.632 179.493 347.992 180.845C348.351 182.197 347.548 183.583 346.196 183.942C346.196 183.942 346.195 183.942 346.193 183.942L327.104 189.022C326.519 189.177 325.927 189.255 325.329 189.255L325.33 189.254ZM330.803 155.059L318.925 158.22C317.822 158.514 316.872 160.038 316.384 162.299C315.762 165.176 315.966 168.936 316.943 172.613C317.92 176.294 319.609 179.66 321.578 181.85C323.123 183.57 324.704 184.422 325.807 184.128L337.684 180.967C337.423 180.711 337.164 180.441 336.907 180.156C334.385 177.349 332.338 173.329 331.145 168.835C329.951 164.345 329.734 159.84 330.531 156.15C330.612 155.775 330.702 155.413 330.803 155.061V155.059Z" fill="black"/>
<path d="M325.33 189.254C322.795 189.254 320.183 187.87 317.815 185.236C315.293 182.429 313.246 178.408 312.053 173.914C310.86 169.424 310.642 164.919 311.438 161.229C312.362 156.949 314.559 154.142 317.624 153.327L336.709 148.25H336.716C338.063 147.888 339.451 148.693 339.811 150.044C340.17 151.396 339.365 152.783 338.015 153.141H338.012C336.911 153.436 335.962 154.962 335.475 157.22C334.853 160.097 335.056 163.856 336.033 167.534C337.01 171.215 338.699 174.581 340.669 176.771C342.214 178.49 343.796 179.344 344.897 179.049C346.244 178.689 347.632 179.493 347.992 180.845C348.351 182.197 347.548 183.583 346.196 183.942C346.196 183.942 346.195 183.942 346.193 183.942L327.104 189.022C326.519 189.177 325.927 189.255 325.329 189.255L325.33 189.254ZM330.803 155.059L318.925 158.22C317.822 158.514 316.872 160.038 316.384 162.299C315.762 165.176 315.966 168.936 316.943 172.613C317.92 176.294 319.609 179.66 321.578 181.85C323.123 183.57 324.704 184.422 325.807 184.128L337.684 180.967C337.423 180.711 337.164 180.441 336.907 180.156C334.385 177.349 332.338 173.329 331.145 168.835C329.951 164.345 329.734 159.84 330.531 156.15C330.612 155.775 330.702 155.413 330.803 155.061V155.059Z" fill="black"/>
<path d="M247.572 341.644C245.932 341.644 244.291 341.335 242.746 340.717C224.692 333.486 210.46 321.278 200.444 304.433C199.731 303.232 200.124 301.678 201.325 300.962C202.525 300.248 204.078 300.641 204.793 301.844C214.226 317.709 227.628 329.208 244.626 336.017C246.652 336.828 248.951 336.764 250.93 335.842L253.532 334.629L248.199 329.434C246.858 328.121 246.28 326.239 246.655 324.399C247.03 322.559 248.296 321.053 250.042 320.369L296.19 302.311C299.384 301.061 302.983 301.725 305.584 304.044C312.661 310.35 320.737 313.223 331.774 313.36C331.831 313.36 331.886 313.36 331.942 313.36C336.494 313.36 340.696 311.056 343.205 307.172L345.737 303.253C346.441 302.165 346.143 300.703 345.074 299.996C329.888 289.949 321.013 273.294 321.911 256.532C321.986 255.135 323.178 254.063 324.573 254.139C325.968 254.214 327.038 255.407 326.963 256.803C326.16 271.781 334.17 286.714 347.863 295.773C351.236 298.004 352.189 302.594 349.985 306.002L347.453 309.921C343.961 315.324 338.062 318.502 331.711 318.422C319.368 318.268 310.272 314.999 302.22 307.823C301.048 306.779 299.445 306.474 298.032 307.025L251.884 325.083C251.736 325.143 251.644 325.25 251.611 325.407C251.58 325.564 251.621 325.7 251.736 325.812L257.067 331.031C258.25 332.19 258.79 333.858 258.511 335.491C258.233 337.123 257.17 338.517 255.669 339.216L253.067 340.428C251.336 341.236 249.454 341.641 247.572 341.641V341.644Z" fill="black"/>
<path d="M154.021 134.805C152.638 134.805 151.509 133.693 151.492 132.305C151.182 107.781 156.505 87.4798 167.763 70.2404C168.07 69.7707 168.524 69.4155 169.054 69.233L182.269 64.659C183.073 64.3802 183.961 64.5246 184.636 65.0424C185.31 65.5602 185.679 66.3822 185.619 67.2297L184.575 82.0016C184.518 82.7996 184.841 83.5494 185.458 84.0573C186.076 84.5653 186.872 84.7365 187.645 84.5271L244.351 69.1255C245.663 68.769 246.733 67.8508 247.286 66.6072L257.587 43.4058C257.897 42.7097 258.502 42.189 259.237 41.991L271.218 38.7426C272.209 38.4752 273.265 38.8303 273.888 39.6481L280.989 48.9348C281.459 49.5489 281.623 50.3426 281.433 51.0924C278.151 64.1228 275.062 89.1492 291.254 110.356C292.102 111.466 291.89 113.055 290.78 113.904C289.671 114.754 288.083 114.542 287.234 113.43C274.491 96.7439 270.603 74.6305 276.234 51.0486L270.901 44.075L261.721 46.5636L251.908 68.6657C250.735 71.3071 248.463 73.2567 245.675 74.0151L188.97 89.4166C186.63 90.0519 184.117 89.5114 182.245 87.9721C180.373 86.4314 179.357 84.0673 179.528 81.6465L180.303 70.7002L171.532 73.7363C161.16 89.9528 156.26 109.102 156.551 132.244C156.568 133.642 155.451 134.789 154.053 134.808H154.021V134.805Z" fill="black"/>
<path d="M182.449 78.7221C181.366 78.7221 180.364 78.0204 180.03 76.9282C179.621 75.5912 180.375 74.1764 181.711 73.7675L255.003 51.3711C256.338 50.9608 257.754 51.7149 258.161 53.0533C258.57 54.3903 257.817 55.8051 256.481 56.214L183.188 78.6104C182.942 78.6853 182.693 78.7221 182.449 78.7221Z" fill="black"/>
<path d="M254.16 334.261C253.143 334.261 252.185 333.643 251.798 332.637C251.297 331.331 251.947 329.867 253.252 329.366L308.912 307.959C310.215 307.458 311.68 308.109 312.18 309.413C312.681 310.719 312.03 312.183 310.726 312.684L255.066 334.091C254.768 334.206 254.461 334.261 254.16 334.261Z" fill="black"/>
<path d="M307.071 354C286.125 354 266.03 349.33 250.715 340.319C249.51 339.61 249.109 338.058 249.816 336.853C250.524 335.648 252.075 335.246 253.279 335.955C277.098 349.97 313.208 352.932 345.274 343.494C370.265 336.141 404.785 317.998 427.313 273.318C437.414 253.286 443.173 231.279 444.427 207.906C451.801 70.5558 391.382 26.9289 354.711 13.1473C295.896 -8.9576 221.566 15.4067 177.971 71.075C177.108 72.1758 175.518 72.3682 174.42 71.5066C173.32 70.6435 173.127 69.0519 173.988 67.9511C218.911 10.5907 295.663 -14.4541 356.492 8.40771C386.328 19.62 410.544 41.8551 426.522 72.7091C444.699 107.81 452.424 153.388 449.481 208.178C448.189 232.254 442.25 254.937 431.831 275.599C408.486 321.896 372.652 340.715 346.702 348.351C333.811 352.144 320.272 353.999 307.071 353.999V354Z" fill="black"/>
<path d="M337.252 292.65C336.424 292.65 335.612 292.243 335.127 291.497C334.367 290.323 334.7 288.755 335.872 287.994C394.768 249.759 397.452 167.006 370.076 108.555C352.679 71.4089 319.114 36.3741 277.09 49.437C275.755 49.8501 274.339 49.1059 273.923 47.7704C273.509 46.4348 274.254 45.0157 275.588 44.6012C295.003 38.5657 314.872 41.9159 333.048 54.2912C349.571 65.5431 363.959 83.5621 374.658 106.404C389.209 137.473 395 173.887 390.545 206.308C385.391 243.821 367.437 273.536 338.626 292.24C338.201 292.516 337.724 292.647 337.252 292.647V292.65Z" fill="black"/>
<path d="M359.731 313.831C354.602 313.831 349.474 312.861 344.418 310.91C343.114 310.408 342.465 308.942 342.967 307.637C343.47 306.333 344.935 305.682 346.238 306.187C359.077 311.143 371.972 309.062 384.563 300.003C398.967 289.64 411.982 270.633 421.207 246.481C430.405 222.405 434.883 195.784 433.82 171.523C432.5 132.691 421.913 97.1003 403.204 68.5736C386.663 43.3505 364.411 25.4815 342.157 19.5436C316.058 12.5785 292.442 22.5472 277.362 46.8861C276.626 48.0745 275.066 48.441 273.879 47.7038C272.691 46.9667 272.325 45.4062 273.062 44.2178C289.398 17.8501 315.057 7.07348 343.459 14.6512C367.244 20.9966 389.964 39.1598 407.432 65.7949C426.65 95.0984 437.523 131.59 438.874 171.325C441.157 223.414 418.598 281.754 387.514 304.115C378.54 310.57 369.132 313.833 359.726 313.833L359.731 313.831Z" fill="black"/>
<path d="M439.839 116.19C439.783 116.165 439.63 116.089 439.409 115.975C437.392 114.957 429.246 110.728 426.406 109.247C425.793 108.93 425.427 108.74 425.427 108.74L382.724 133.666L385.134 144.09C384.919 144.085 384.71 144.065 384.495 144.039C377.721 143.134 370.385 131.886 370.998 122.759L376.95 118.993L418.135 92.9211L421.057 91.0734L432.58 93.4474L432.921 93.5167C440.13 98.0936 442.135 105.828 439.839 116.189V116.19Z" fill="white"/>
<path d="M385.533 144.42L385.122 144.407C384.897 144.4 384.679 144.38 384.456 144.353C377.402 143.411 370.066 131.896 370.681 122.738L370.693 122.578L376.78 118.726L420.995 90.738L433.091 93.2493C440.162 97.7371 442.537 105.479 440.149 116.257L440.065 116.636L439.711 116.478C439.652 116.451 439.495 116.373 439.266 116.254C437.26 115.241 429.148 111.032 426.261 109.525L425.437 109.099L383.086 133.82L385.536 144.419L385.533 144.42ZM371.303 122.94C370.8 131.796 377.8 142.825 384.537 143.725C384.602 143.732 384.665 143.739 384.729 143.747L382.362 133.509L425.417 108.378L426.551 108.965C429.438 110.47 437.547 114.679 439.551 115.691C439.574 115.702 439.595 115.714 439.616 115.723C441.826 105.325 439.594 98.1544 432.8 93.8152L421.117 91.4087L371.303 122.94Z" fill="black"/>
<g opacity="0.6">
<path opacity="0.6" d="M383.775 138.217L385.135 144.092C384.92 144.086 384.711 144.066 384.496 144.041C377.721 143.135 370.386 131.888 370.999 122.761L375.402 119.976C375.18 126.654 379.05 134.325 383.775 138.217Z" fill="white"/>
</g>
<path d="M443.262 236.186L442.717 235.4L431.384 219.12L375.128 246.61L375.122 246.615C374.718 234.843 377.209 223.032 385.077 216.334L385.709 215.999L435.647 189.333L436.134 189.801L446.81 199.941L447.069 200.187C453.368 213.423 453.279 226.037 443.262 236.183V236.186Z" fill="white"/>
<path d="M374.836 247.323L374.805 246.627C374.331 232.865 377.906 222.022 384.87 216.094L385.56 215.72L435.701 188.947L436.354 189.575L447.355 200.053C454.267 214.576 452.966 226.808 443.487 236.408L443.22 236.678L431.28 219.523L375.311 246.873L374.837 247.323H374.836ZM435.593 189.722L385.224 216.616C378.548 222.308 375.055 232.784 375.421 246.115L431.488 218.718L443.302 235.69C452.32 226.353 453.5 214.475 446.808 200.38L435.592 189.723L435.593 189.722Z" fill="black"/>
<g opacity="0.6">
<path opacity="0.6" d="M436.54 190.189L393.091 213.387L392.459 213.723C384.806 220.236 382.238 231.579 382.478 243.022L375.13 246.611L375.124 246.617C374.72 234.844 377.211 223.033 385.079 216.336L385.711 216L435.649 189.334L436.136 189.803L436.54 190.189Z" fill="white"/>
</g>
<path d="M385.134 146.624C385.104 146.624 385.074 146.624 385.045 146.624C381.861 146.512 378.463 144.629 375.48 141.321C370.807 136.142 368.058 128.789 368.473 122.591C368.527 121.784 368.963 121.053 369.645 120.621L419.702 88.9383C420.257 88.5875 420.924 88.4672 421.564 88.5974L433.434 91.0421C433.733 91.1044 434.019 91.219 434.278 91.3845C442.222 96.4241 444.924 104.954 442.307 116.739C442.142 117.483 441.65 118.114 440.968 118.454C440.287 118.795 439.488 118.809 438.794 118.495C438.167 118.211 429.601 113.767 425.496 111.633L385.607 134.911L387.599 143.523C387.776 144.29 387.588 145.096 387.087 145.705C386.605 146.289 385.889 146.626 385.135 146.626L385.134 146.624ZM373.495 124.174C373.595 128.757 375.809 134.13 379.236 137.927C380.016 138.792 380.819 139.52 381.612 140.092L380.258 134.233C380.008 133.152 380.491 132.035 381.448 131.476L424.151 106.555C424.901 106.117 425.822 106.094 426.591 106.496C430.133 108.337 434.907 110.813 437.953 112.384C438.977 104.716 436.997 99.3018 431.945 95.9048L421.546 93.7628L373.496 124.175L373.495 124.174Z" fill="black"/>
<path d="M375.611 249.636C375.158 249.636 374.707 249.514 374.307 249.275C373.572 248.834 373.111 248.049 373.082 247.191C372.73 236.966 374.324 223.065 383.926 214.894C384.064 214.777 384.214 214.675 384.374 214.589L434.943 187.59C435.904 187.078 437.085 187.238 437.875 187.987L449.297 198.84C449.522 199.054 449.706 199.309 449.84 199.587C457.091 214.826 455.607 228.267 445.548 238.456C445.02 238.991 444.282 239.268 443.532 239.199C442.783 239.135 442.102 238.741 441.672 238.124L431.031 222.834L376.72 249.379C376.368 249.551 375.99 249.636 375.611 249.636ZM387.005 218.923C381.5 223.745 378.401 232.217 378.12 243.06L430.76 217.333C431.881 216.784 433.232 217.137 433.946 218.161L443.996 232.602C450.557 224.397 451.056 214.181 445.471 202.185L435.715 192.917L387.004 218.923H387.005Z" fill="black"/>
<path d="M347.321 48.9857L355.943 41.1996C356.806 40.4205 358.137 40.489 358.916 41.3524L360.97 43.6308C361.748 44.4942 361.68 45.827 360.817 46.6061L352.195 54.3922C351.332 55.1713 350.001 55.1028 349.222 54.2394L347.168 51.961C346.389 51.0976 346.458 49.7648 347.321 48.9857Z" fill="black"/>
<path d="M380.618 69.8908L371.607 77.2225C370.705 77.9564 370.568 79.2832 371.301 80.186L373.236 82.5671C373.969 83.4699 375.295 83.6068 376.197 82.8729L385.208 75.5412C386.11 74.8072 386.247 73.4804 385.514 72.5776L383.579 70.1965C382.846 69.2937 381.52 69.1569 380.618 69.8908Z" fill="black"/>
<path d="M401.307 143.053L411.979 138.469C413.047 138.01 414.285 138.505 414.743 139.574L415.953 142.394C416.411 143.463 415.917 144.702 414.849 145.161L404.177 149.745C403.109 150.204 401.871 149.709 401.412 148.64L400.203 145.82C399.744 144.751 400.239 143.512 401.307 143.053Z" fill="black"/>
<path d="M406.932 171.261L418.095 168.056C419.212 167.735 420.378 168.382 420.699 169.499L421.545 172.449C421.865 173.567 421.219 174.734 420.102 175.055L408.939 178.261C407.822 178.581 406.655 177.935 406.335 176.817L405.489 173.867C405.169 172.749 405.815 171.582 406.932 171.261Z" fill="black"/>
<path d="M240.487 297.823C239.471 297.823 238.555 297.117 238.327 296.083L235.466 283.027C235.204 281.831 235.959 280.65 237.154 280.388C238.348 280.126 239.527 280.882 239.79 282.078L242.652 295.133C242.913 296.329 242.158 297.51 240.964 297.772C240.804 297.807 240.644 297.824 240.487 297.824V297.823Z" fill="black"/>
<path d="M203.043 126.94C202.025 126.94 201.109 126.234 200.883 125.2L198.637 114.948C198.375 113.753 199.13 112.571 200.325 112.309C201.519 112.046 202.7 112.805 202.961 113.999L205.208 124.25C205.469 125.446 204.714 126.627 203.52 126.889C203.36 126.924 203.2 126.941 203.043 126.941V126.94Z" fill="black"/>
<path d="M275.213 192.728C274.234 192.728 273.339 192.073 273.076 191.082C272.762 189.899 273.465 188.686 274.646 188.371L286.981 185.089C288.163 184.77 289.374 185.478 289.689 186.66C290.003 187.843 289.301 189.056 288.119 189.371L275.784 192.653C275.594 192.704 275.403 192.728 275.215 192.728H275.213Z" fill="black"/>
<path d="M153.518 225.106C152.539 225.106 151.644 224.451 151.381 223.459C151.067 222.276 151.77 221.064 152.952 220.749L164.776 217.602C165.957 217.284 167.17 217.991 167.484 219.174C167.798 220.357 167.095 221.569 165.914 221.885L154.09 225.031C153.899 225.082 153.708 225.106 153.52 225.106H153.518Z" fill="black"/>
<g opacity="0.3">
<path opacity="0.3" d="M285.87 107.005C277.901 103.27 268.826 98.8023 268.826 98.8023C256.252 79.7817 271.881 41.1844 271.881 41.1844L278.977 50.4698C277.244 57.3443 276.257 64.5216 276.257 71.7188C276.257 83.8521 279.065 96.0619 285.87 107.005Z" fill="black"/>
</g>
<g opacity="0.3">
<path opacity="0.3" d="M432.441 92.2334L432.124 92.2207L420.159 91.6449L376.418 117.584L376.405 117.578C357.533 69.2273 319.598 34.0666 277.383 46.0797L276.339 43.782C301.934 2.82205 362.459 5.26542 400.653 60.4456C408.767 62.4263 415.022 62.6612 411.961 54.161C411.923 54.0408 411.872 53.9205 411.828 53.7932L412.214 54.5147L431.365 90.2258L432.441 92.232V92.2334Z" fill="black"/>
</g>
<g opacity="0.3">
<path opacity="0.3" d="M443.262 236.186L442.718 235.4C439.796 248.749 435.261 261.719 429.083 273.972C398.726 334.179 342.994 353.63 298.09 350.749C296.16 350.002 295.104 349.591 295.104 349.591C325.481 345.774 348.798 336.608 348.647 309.676C408.73 324.931 431.384 219.12 431.384 219.12L430.658 212.557L431.505 196.942L435.932 192.093L436.134 189.821V189.803C440.542 161.028 429.62 120.305 426.407 109.247C425.87 107.399 425.547 106.379 425.547 106.379L422.227 95.6191H415.743L418.134 92.9225L420.752 89.9727L432.213 92.467C432.339 92.7895 432.459 93.1192 432.58 93.4474L432.921 93.5167C440.131 98.0936 442.135 105.828 439.84 116.189C439.783 116.164 439.63 116.087 439.41 115.974C445.229 139.772 447.967 167.648 446.809 199.941L447.068 200.187C453.367 213.423 453.278 226.037 443.261 236.183L443.262 236.186Z" fill="black"/>
</g>
<path d="M413.117 254.269V210.083L496.854 90.6143H555.497V207.9H576.5V254.269H555.497V287H501.491V254.269H413.117ZM505.582 150.894L467.942 207.9H505.582V150.894Z" fill="black"/>
</svg>
